<svg width="48" height="48" viewBox="0 0 48 48" fill="none" xmlns="http://www.w3.org/2000/svg">
<path fill-rule="evenodd" clip-rule="evenodd" d="M3.7098 7.36969C5.32411 4.47343 8.43468 2.5 12 2.5H30C30.8284 2.5 31.5 3.17157 31.5 4V24C31.5 27.0284 29.0284 29.5 26 29.5H24C23.1716 29.5 22.5 28.8284 22.5 28C22.5 27.1716 23.1716 26.5 24 26.5H26C27.3716 26.5 28.5 25.3716 28.5 24V5.5H12C9.56532 5.5 7.43593 6.84652 6.33024 8.83026C5.92691 9.55388 5.01335 9.81352 4.28973 9.4102C3.56612 9.00687 3.30647 8.0933 3.7098 7.36969Z" fill="#182D5A"/>
<path fill-rule="evenodd" clip-rule="evenodd" d="M28.5 10C28.5 9.17157 29.1716 8.5 30 8.5H33.6801C35.6678 8.5 37.4754 9.57599 38.4572 11.2668L38.4622 11.2753L41.8821 17.2553C42.1476 17.7196 42.1458 18.2901 41.8775 18.7527C41.6091 19.2153 41.1148 19.5 40.58 19.5H38C37.7284 19.5 37.5 19.7284 37.5 20V26C37.5 26.2716 37.7284 26.5 38 26.5H44C44.8284 26.5 45.5 27.1716 45.5 28V34C45.5 38.1484 42.1484 41.5 38 41.5H36C35.1716 41.5 34.5 40.8284 34.5 40C34.5 38.6284 33.3716 37.5 32 37.5C30.6284 37.5 29.5 38.6284 29.5 40C29.5 40.8284 28.8284 41.5 28 41.5H20C19.1716 41.5 18.5 40.8284 18.5 40C18.5 38.6284 17.3716 37.5 16 37.5C14.6284 37.5 13.5 38.6284 13.5 40C13.5 40.8284 12.8284 41.5 12 41.5H10C5.85157 41.5 2.5 38.1484 2.5 34C2.5 33.1716 3.17157 32.5 4 32.5C4.82843 32.5 5.5 33.1716 5.5 34C5.5 36.4916 7.50843 38.5 10 38.5H10.7086C11.3645 36.1962 13.4912 34.5 16 34.5C18.5088 34.5 20.6355 36.1962 21.2914 38.5H26.7086C27.3645 36.1962 29.4912 34.5 32 34.5C34.5088 34.5 36.6355 36.1962 37.2914 38.5H38C40.4916 38.5 42.5 36.4916 42.5 34V29.5H38C36.0716 29.5 34.5 27.9284 34.5 26V20C34.5 18.0735 36.0684 16.5032 37.9941 16.5L35.8629 12.7732C35.8621 12.772 35.8614 12.7707 35.8607 12.7695C35.402 11.9825 34.5709 11.5 33.6801 11.5H31.5V24C31.5 27.0284 29.0284 29.5 26 29.5H24C23.1716 29.5 22.5 28.8284 22.5 28C22.5 27.1716 23.1716 26.5 24 26.5H26C27.3716 26.5 28.5 25.3716 28.5 24V10Z" fill="#182D5A"/>
<path fill-rule="evenodd" clip-rule="evenodd" d="M16 37.5C14.6193 37.5 13.5 38.6193 13.5 40C13.5 41.3807 14.6193 42.5 16 42.5C17.3807 42.5 18.5 41.3807 18.5 40C18.5 38.6193 17.3807 37.5 16 37.5ZM10.5 40C10.5 36.9624 12.9624 34.5 16 34.5C19.0376 34.5 21.5 36.9624 21.5 40C21.5 43.0376 19.0376 45.5 16 45.5C12.9624 45.5 10.5 43.0376 10.5 40Z" fill="#182D5A"/>
<path fill-rule="evenodd" clip-rule="evenodd" d="M32 37.5C30.6193 37.5 29.5 38.6193 29.5 40C29.5 41.3807 30.6193 42.5 32 42.5C33.3807 42.5 34.5 41.3807 34.5 40C34.5 38.6193 33.3807 37.5 32 37.5ZM26.5 40C26.5 36.9624 28.9624 34.5 32 34.5C35.0376 34.5 37.5 36.9624 37.5 40C37.5 43.0376 35.0376 45.5 32 45.5C28.9624 45.5 26.5 43.0376 26.5 40Z" fill="#182D5A"/>
<path fill-rule="evenodd" clip-rule="evenodd" d="M38 19.5C37.7284 19.5 37.5 19.7284 37.5 20V26C37.5 26.2716 37.7284 26.5 38 26.5H42.5V24.3975L39.7084 19.5H38ZM34.5 20C34.5 18.0716 36.0716 16.5 38 16.5H40.58C41.1188 16.5 41.6163 16.789 41.8831 17.2572L45.3032 23.2572C45.4322 23.4835 45.5 23.7395 45.5 24V28C45.5 28.8284 44.8284 29.5 44 29.5H38C36.0716 29.5 34.5 27.9284 34.5 26V20Z" fill="#182D5A"/>
<path fill-rule="evenodd" clip-rule="evenodd" d="M2.5 16C2.5 15.1716 3.17157 14.5 4 14.5H16C16.8284 14.5 17.5 15.1716 17.5 16C17.5 16.8284 16.8284 17.5 16 17.5H4C3.17157 17.5 2.5 16.8284 2.5 16Z" fill="#182D5A"/>
<path fill-rule="evenodd" clip-rule="evenodd" d="M2.5 22C2.5 21.1716 3.17157 20.5 4 20.5H12C12.8284 20.5 13.5 21.1716 13.5 22C13.5 22.8284 12.8284 23.5 12 23.5H4C3.17157 23.5 2.5 22.8284 2.5 22Z" fill="#182D5A"/>
<path fill-rule="evenodd" clip-rule="evenodd" d="M2.5 28C2.5 27.1716 3.17157 26.5 4 26.5H8C8.82843 26.5 9.5 27.1716 9.5 28C9.5 28.8284 8.82843 29.5 8 29.5H4C3.17157 29.5 2.5 28.8284 2.5 28Z" fill="#182D5A"/>
</svg>
