<svg width="65" height="64" viewBox="0 0 65 64" fill="none" xmlns="http://www.w3.org/2000/svg">
<path d="M53.6636 42.6667V18.6667C53.6636 17.2522 53.1017 15.8956 52.1015 14.8954C51.1013 13.8952 49.7448 13.3333 48.3303 13.3333H16.3303C14.9158 13.3333 13.5593 13.8952 12.5591 14.8954C11.5589 15.8956 10.997 17.2522 10.997 18.6667V42.6667M53.6636 42.6667H10.997M53.6636 42.6667L57.077 49.4667C57.2826 49.8746 57.3799 50.3286 57.3596 50.785C57.3394 51.2413 57.2022 51.6849 56.9613 52.073C56.7204 52.4612 56.3838 52.7809 55.9838 53.0016C55.5838 53.2223 55.1338 53.3365 54.677 53.3333H9.98363C9.5268 53.3365 9.07681 53.2223 8.67682 53.0016C8.27682 52.7809 7.94022 52.4612 7.6993 52.073C7.45838 51.6849 7.32122 51.2413 7.30096 50.785C7.28071 50.3286 7.37804 49.8746 7.58363 49.4667L10.997 42.6667" stroke="#1B1F28" stroke-width="3" stroke-linecap="round" stroke-linejoin="round"/>
</svg>
