<svg width="65" height="64" viewBox="0 0 65 64" fill="none" xmlns="http://www.w3.org/2000/svg">
<path d="M54.0031 26.6667C54.0031 39.9813 39.2324 53.848 34.2724 58.1307C33.8104 58.4781 33.2479 58.666 32.6698 58.666C32.0916 58.666 31.5292 58.4781 31.0671 58.1307C26.1071 53.848 11.3364 39.9813 11.3364 26.6667C11.3364 21.0087 13.584 15.5825 17.5848 11.5817C21.5856 7.58095 27.0118 5.33334 32.6698 5.33334C38.3277 5.33334 43.7539 7.58095 47.7547 11.5817C51.7555 15.5825 54.0031 21.0087 54.0031 26.6667Z" stroke="#1B1F28" stroke-width="3" stroke-linecap="round" stroke-linejoin="round"/>
<path d="M32.6698 34.6667C37.088 34.6667 40.6698 31.0849 40.6698 26.6667C40.6698 22.2484 37.088 18.6667 32.6698 18.6667C28.2515 18.6667 24.6698 22.2484 24.6698 26.6667C24.6698 31.0849 28.2515 34.6667 32.6698 34.6667Z" stroke="#1B1F28" stroke-width="3" stroke-linecap="round" stroke-linejoin="round"/>
</svg>
