<svg width="16" height="19" viewBox="0 0 16 19" fill="none" xmlns="http://www.w3.org/2000/svg">
<path d="M8.304 18.716C6.064 18.716 4.272 18.22 2.928 17.228C1.584 16.22 0.8 14.804 0.576 12.98H4.128C4.24 13.908 4.688 14.644 5.472 15.188C6.256 15.716 7.256 15.98 8.472 15.98C9.464 15.98 10.224 15.804 10.752 15.452C11.296 15.1 11.568 14.628 11.568 14.036C11.568 13.476 11.408 13.028 11.088 12.692C10.768 12.34 10.216 12.06 9.432 11.852L6.216 10.964C4.568 10.5 3.36 9.868 2.592 9.068C1.84 8.252 1.464 7.236 1.464 6.02C1.464 4.98 1.728 4.084 2.256 3.332C2.8 2.564 3.56 1.98 4.536 1.58C5.512 1.164 6.656 0.956 7.968 0.956C9.984 0.956 11.592 1.436 12.792 2.396C13.992 3.34 14.672 4.596 14.832 6.164H11.28C11.12 5.316 10.728 4.692 10.104 4.292C9.496 3.892 8.712 3.692 7.752 3.692C6.92 3.692 6.256 3.852 5.76 4.172C5.264 4.492 5.016 4.924 5.016 5.468C5.016 5.884 5.152 6.268 5.424 6.62C5.696 6.956 6.264 7.244 7.128 7.484L10.344 8.372C12.04 8.836 13.256 9.476 13.992 10.292C14.744 11.092 15.12 12.108 15.12 13.34C15.12 15.068 14.52 16.396 13.32 17.324C12.12 18.252 10.448 18.716 8.304 18.716Z" fill="#1F1F25"/>
</svg>
