<svg width="48" height="48" viewBox="0 0 48 48" fill="none" xmlns="http://www.w3.org/2000/svg">
<path d="M12 36H36M12 28H36M44 16.7V40C44 41.0608 43.5786 42.0783 42.8284 42.8284C42.0783 43.5785 41.0609 44 40 44H8C6.93913 44 5.92172 43.5785 5.17157 42.8284C4.42143 42.0783 4 41.0608 4 40V16.7C4.00322 15.9023 4.24488 15.1237 4.69392 14.4644C5.14297 13.8051 5.7789 13.2951 6.52 13L22.52 6.59997C23.4704 6.22148 24.5296 6.22148 25.48 6.59997L41.48 13C42.2211 13.2951 42.857 13.8051 43.3061 14.4644C43.7551 15.1237 43.9968 15.9023 44 16.7ZM12 20H36V44H12V20Z" stroke="#351C1A" stroke-width="2" stroke-linecap="round" stroke-linejoin="round"/>
</svg>
