<svg xmlns="http://www.w3.org/2000/svg" version="1.1" xmlns:xlink="http://www.w3.org/1999/xlink" xmlns:svgjs="http://svgjs.dev/svgjs" width="1000" height="1000"><g clip-path="url(#SvgjsClipPath1102)"><rect width="1000" height="1000" fill="#ffffff"></rect><g transform="matrix(5.384615384615385,0,0,5.384615384615385,150,435.38461538461536)"><svg xmlns="http://www.w3.org/2000/svg" version="1.1" xmlns:xlink="http://www.w3.org/1999/xlink" xmlns:svgjs="http://svgjs.dev/svgjs" width="130" height="24"><svg width="130" height="24" viewBox="0 0 130 24" fill="none" xmlns="http://www.w3.org/2000/svg">
<path d="M8.304 18.716C6.064 18.716 4.272 18.22 2.928 17.228C1.584 16.22 0.8 14.804 0.576 12.98H4.128C4.24 13.908 4.688 14.644 5.472 15.188C6.256 15.716 7.256 15.98 8.472 15.98C9.464 15.98 10.224 15.804 10.752 15.452C11.296 15.1 11.568 14.628 11.568 14.036C11.568 13.476 11.408 13.028 11.088 12.692C10.768 12.34 10.216 12.06 9.432 11.852L6.216 10.964C4.568 10.5 3.36 9.868 2.592 9.068C1.84 8.252 1.464 7.236 1.464 6.02C1.464 4.98 1.728 4.084 2.256 3.332C2.8 2.564 3.56 1.98 4.536 1.58C5.512 1.164 6.656 0.956 7.968 0.956C9.984 0.956 11.592 1.436 12.792 2.396C13.992 3.34 14.672 4.596 14.832 6.164H11.28C11.12 5.316 10.728 4.692 10.104 4.292C9.496 3.892 8.712 3.692 7.752 3.692C6.92 3.692 6.256 3.852 5.76 4.172C5.264 4.492 5.016 4.924 5.016 5.468C5.016 5.884 5.152 6.268 5.424 6.62C5.696 6.956 6.264 7.244 7.128 7.484L10.344 8.372C12.04 8.836 13.256 9.476 13.992 10.292C14.744 11.092 15.12 12.108 15.12 13.34C15.12 15.068 14.52 16.396 13.32 17.324C12.12 18.252 10.448 18.716 8.304 18.716ZM19.5699 18.5L15.8259 6.26H19.6179L21.4899 14.804H21.3939L23.7459 6.26H27.1059L29.4819 14.804H29.3859L31.2339 6.26H34.9299L31.1859 18.5H27.7299L25.3299 9.98H25.4259L23.0259 18.5H19.5699ZM36.3619 18.5V6.26H39.9619V18.5H36.3619ZM36.2419 4.628V0.74H40.0819V4.628H36.2419ZM43.6026 18.5V5.444C43.6026 3.972 44.0026 2.86 44.8026 2.108C45.6026 1.356 46.7866 0.98 48.3546 0.98C48.6906 0.98 48.9786 0.995999 49.2186 1.028C49.4746 1.06 49.7226 1.116 49.9626 1.196V3.956C49.8506 3.908 49.7146 3.876 49.5546 3.86C49.3946 3.828 49.2026 3.812 48.9786 3.812C48.3706 3.812 47.9226 3.956 47.6346 4.244C47.3466 4.532 47.2026 4.948 47.2026 5.492V18.5H43.6026ZM41.5626 8.996V6.26H49.6986V8.996H41.5626ZM57.6152 18.764C56.0472 18.764 54.8792 18.388 54.1112 17.636C53.3592 16.868 52.9832 15.708 52.9832 14.156V3.524L56.5832 2.18V14.276C56.5832 14.82 56.7352 15.228 57.0392 15.5C57.3432 15.772 57.8152 15.908 58.4552 15.908C58.6952 15.908 58.9192 15.884 59.1272 15.836C59.3352 15.788 59.5432 15.732 59.7512 15.668V18.404C59.5432 18.516 59.2472 18.604 58.8632 18.668C58.4952 18.732 58.0792 18.764 57.6152 18.764ZM50.7032 8.996V6.26H59.7512V8.996H50.7032ZM69.6653 18.74C68.4173 18.74 67.2653 18.524 66.2093 18.092C65.1533 17.644 64.2333 17.02 63.4492 16.22C62.6813 15.42 62.0813 14.476 61.6493 13.388C61.2173 12.284 61.0013 11.084 61.0013 9.788C61.0013 8.492 61.2093 7.308 61.6253 6.236C62.0573 5.164 62.6573 4.236 63.4253 3.452C64.2093 2.652 65.1293 2.044 66.1853 1.628C67.2413 1.196 68.4013 0.98 69.6653 0.98C71.0893 0.98 72.3693 1.26 73.5052 1.82C74.6573 2.364 75.5933 3.14 76.3133 4.148C77.0493 5.14 77.4973 6.308 77.6573 7.652H74.0573C73.8493 6.42 73.3453 5.492 72.5453 4.868C71.7453 4.228 70.7933 3.908 69.6893 3.908C68.7133 3.908 67.8493 4.14 67.0973 4.604C66.3613 5.068 65.7853 5.74 65.3693 6.62C64.9533 7.484 64.7453 8.532 64.7453 9.764C64.7453 11.012 64.9533 12.092 65.3693 13.004C65.8013 13.9 66.3933 14.596 67.1453 15.092C67.8973 15.572 68.7613 15.812 69.7373 15.812C70.7773 15.812 71.6973 15.5 72.4973 14.876C73.2973 14.252 73.8173 13.324 74.0573 12.092H77.7053C77.4973 13.436 77.0253 14.612 76.2893 15.62C75.5533 16.612 74.6173 17.38 73.4813 17.924C72.3453 18.468 71.0733 18.74 69.6653 18.74ZM86.9331 18.5C86.8371 18.148 86.7651 17.772 86.7171 17.372C86.6851 16.972 86.6691 16.508 86.6691 15.98H86.5731V10.196C86.5731 9.7 86.4051 9.316 86.0691 9.044C85.7491 8.756 85.2691 8.612 84.6291 8.612C84.0211 8.612 83.5331 8.716 83.1651 8.924C82.8131 9.132 82.5811 9.436 82.4691 9.836H79.0371C79.1971 8.732 79.7651 7.82 80.7411 7.1C81.7171 6.38 83.0531 6.02 84.7491 6.02C86.5091 6.02 87.8531 6.412 88.7811 7.196C89.7091 7.98 90.1731 9.108 90.1731 10.58V15.98C90.1731 16.38 90.1971 16.788 90.2451 17.204C90.3091 17.604 90.4051 18.036 90.5331 18.5H86.9331ZM82.6611 18.74C81.4451 18.74 80.4771 18.436 79.7571 17.828C79.0371 17.204 78.6771 16.38 78.6771 15.356C78.6771 14.22 79.1011 13.308 79.9491 12.62C80.8131 11.916 82.0131 11.46 83.5491 11.252L87.1251 10.748V12.836L84.1491 13.292C83.5091 13.388 83.0371 13.564 82.7331 13.82C82.4291 14.076 82.2771 14.428 82.2771 14.876C82.2771 15.276 82.4211 15.58 82.7091 15.788C82.9971 15.996 83.3811 16.1 83.8611 16.1C84.6131 16.1 85.2531 15.9 85.7811 15.5C86.3091 15.084 86.5731 14.604 86.5731 14.06L86.9091 15.98C86.5571 16.892 86.0211 17.58 85.3011 18.044C84.5811 18.508 83.7011 18.74 82.6611 18.74ZM92.94 18.5V6.26H96.468V9.14H96.54V18.5H92.94ZM96.54 12.116L96.228 9.212C96.516 8.172 96.988 7.38 97.644 6.836C98.3 6.292 99.116 6.02 100.092 6.02C100.396 6.02 100.62 6.052 100.764 6.116V9.476C100.684 9.444 100.572 9.428 100.428 9.428C100.284 9.412 100.108 9.404 99.9 9.404C98.748 9.404 97.9 9.612 97.356 10.028C96.812 10.428 96.54 11.124 96.54 12.116ZM107.955 23.66C106.259 23.66 104.875 23.3 103.803 22.58C102.747 21.86 102.123 20.884 101.931 19.652H105.339C105.467 19.956 105.739 20.188 106.155 20.348C106.587 20.508 107.131 20.588 107.787 20.588C108.875 20.588 109.667 20.38 110.163 19.964C110.659 19.548 110.907 18.9 110.907 18.02V15.356L111.099 15.404C110.939 16.3 110.475 17.012 109.707 17.54C108.939 18.052 107.987 18.308 106.851 18.308C105.763 18.308 104.811 18.06 103.995 17.564C103.195 17.052 102.571 16.34 102.123 15.428C101.675 14.516 101.451 13.444 101.451 12.212C101.451 10.964 101.683 9.876 102.147 8.948C102.611 8.02 103.259 7.3 104.091 6.788C104.939 6.276 105.923 6.02 107.043 6.02C108.195 6.02 109.131 6.292 109.851 6.836C110.587 7.38 111.019 8.124 111.147 9.068L110.979 9.092V6.26H114.507V17.972C114.507 19.732 113.923 21.116 112.755 22.124C111.587 23.148 109.987 23.66 107.955 23.66ZM108.099 15.548C108.947 15.548 109.635 15.26 110.163 14.684C110.691 14.092 110.955 13.252 110.955 12.164C110.955 11.076 110.683 10.244 110.139 9.668C109.611 9.076 108.915 8.78 108.051 8.78C107.219 8.78 106.531 9.076 105.987 9.668C105.459 10.26 105.195 11.1 105.195 12.188C105.195 13.276 105.459 14.108 105.987 14.684C106.531 15.26 107.235 15.548 108.099 15.548ZM123.193 18.74C121.849 18.74 120.665 18.476 119.641 17.948C118.633 17.404 117.841 16.652 117.265 15.692C116.705 14.716 116.425 13.596 116.425 12.332C116.425 11.068 116.705 9.964 117.265 9.02C117.841 8.076 118.633 7.34 119.641 6.812C120.665 6.284 121.849 6.02 123.193 6.02C124.553 6.02 125.737 6.284 126.745 6.812C127.769 7.34 128.561 8.076 129.121 9.02C129.681 9.964 129.961 11.068 129.961 12.332C129.961 13.596 129.673 14.716 129.097 15.692C128.537 16.652 127.745 17.404 126.721 17.948C125.713 18.476 124.537 18.74 123.193 18.74ZM123.193 15.908C123.753 15.908 124.257 15.764 124.705 15.476C125.169 15.188 125.537 14.78 125.809 14.252C126.081 13.708 126.217 13.06 126.217 12.308C126.217 11.204 125.921 10.356 125.329 9.764C124.753 9.156 124.041 8.852 123.193 8.852C122.345 8.852 121.625 9.156 121.033 9.764C120.457 10.372 120.169 11.22 120.169 12.308C120.169 13.06 120.305 13.708 120.577 14.252C120.849 14.78 121.209 15.188 121.657 15.476C122.121 15.764 122.633 15.908 123.193 15.908Z" fill="black"></path>
</svg></svg></g></g><defs><clipPath id="SvgjsClipPath1102"><rect width="1000" height="1000" x="0" y="0" rx="500" ry="500"></rect></clipPath></defs></svg>